<?xml version="1.0" encoding="UTF-8"?>
<svg width="505px" height="505px" viewBox="0 0 505 505" version="1.1" xmlns="http://www.w3.org/2000/svg" xmlns:xlink="http://www.w3.org/1999/xlink">
    <title>Fill 1</title>
    <g id="Page-1" stroke="none" stroke-width="1" fill="none" fill-rule="evenodd">
        <path d="M252.5,476.249 C237.64,476.249 223.124,474.786 209.074,472.022 L213,248 L252.5,304 L296,244 L295,303 L324,303 L324,156 L252.5,254 L184,156 L179.192,463.948 C91.626,433.594 28.751,350.395 28.751,252.5 C28.751,128.927 128.927,28.751 252.5,28.751 C376.073,28.751 476.249,128.927 476.249,252.5 C476.249,376.073 376.073,476.249 252.5,476.249 M252.5,0 C113.048,0 0,113.048 0,252.5 C0,391.952 113.048,505 252.5,505 C391.952,505 505,391.952 505,252.5 C505,113.048 391.952,0 252.5,0" id="Fill-1" fill="#020202"></path>
    </g>
</svg>